<svg width="512" height="512" viewBox="0 0 512 512" fill="none" xmlns="http://www.w3.org/2000/svg">
<g clip-path="url(#clip0_1_6)">
<rect width="512" height="512" fill="#6BB1FC"/>
<g clip-path="url(#clip1_1_6)">
<path d="M375.924 190.607C371.187 192.308 364.446 199.383 358.494 208.978C357.219 210.982 355.64 213.593 354.972 214.777C353.727 216.903 353.697 216.933 352.27 217.146C347.867 217.723 335.66 218.603 329.83 218.755C323.393 218.937 323.059 218.907 321.784 218.3C321.055 217.935 317.229 214.869 313.312 211.498C297.705 198.077 290.69 193.188 286.53 192.793C285.134 192.672 285.012 192.702 283.889 193.887C279.577 198.381 280.093 209.312 286.075 241.377L287.077 246.721L285.468 249.12C283.524 252.004 281.338 257.045 280.366 260.932C275.872 278.634 282.735 297.551 300.68 316.924C304.871 321.448 305.235 322.086 307.603 329.07C310.033 336.205 310.033 336.205 309.79 344.707C309.577 353.452 309.85 356.003 311.672 361.651C313.403 366.995 315.346 371.246 321.359 382.967C335.053 409.597 339.122 418.22 340.033 422.502C340.731 425.659 340.488 467.654 339.729 477.856C339 487.785 337.938 494.587 336.723 496.925C336.025 498.292 335.478 498.777 333.444 499.871C328.585 502.451 324.122 508.008 323.484 512.229C322.998 515.478 325.215 519.061 329.071 521.278C330.802 522.28 330.893 522.401 330.923 523.525C330.923 526.561 332.928 531.267 334.78 532.695C335.357 533.12 336.996 533.97 338.393 534.516C344.132 536.824 351.237 537.857 356.43 537.097C361.136 536.399 363.353 535.367 367.908 531.784C373.312 527.533 375.225 525.225 378.11 519.516L379.507 516.723L380.661 516.905C388.95 518.241 391.197 518.727 391.106 519.152C391.045 519.395 390.711 520.701 390.377 522.037C389.041 527.199 390.225 531.419 393.991 535.124C396.268 537.401 399.274 538.98 402.523 539.648C412.756 541.743 433.92 539.162 459.7 532.634L467.443 530.66L468.809 531.419C472.787 533.636 478.708 534.759 485.297 534.577C493.222 534.304 498.354 532.877 508.344 528.079C515.115 524.8 521.826 522.462 528.445 521.004C559.295 514.294 595.976 517.33 610.733 527.806C620.116 534.456 618.324 541.136 605.571 547.087C597.555 550.853 584.346 554.648 569.953 557.29L565.338 558.14L563.061 560.448C558.901 564.608 557.291 567.523 557.504 570.499C557.717 573.414 559.629 575.266 563.911 576.723C575.48 580.671 594.275 578.241 614.529 570.256C634.205 562.482 647.353 552.098 650.997 541.409C652.059 538.373 651.999 533.818 650.905 530.782C649.296 526.257 644.802 520.974 638.031 515.478C609.64 492.613 561.816 482.077 516.907 488.787C514.751 489.091 511.866 489.577 510.53 489.85C509.194 490.093 507.949 490.306 507.767 490.306C507.524 490.306 507.615 489.607 508.01 488.241C512.321 472.967 515.419 454.84 516.481 438.291C516.937 431.186 516.664 412.785 516.026 406.651C513.992 387.795 508.86 370.578 501.208 357.218C487.848 333.776 467.048 318.078 438.171 309.606C433.738 308.331 432.706 307.723 424.75 301.711C419.375 297.642 417.007 295.335 415.975 293.148C413.242 287.41 404.952 278.513 398.242 274.11C396.754 273.108 395.418 272.288 395.266 272.227C395.114 272.167 394.477 270.618 393.808 268.796C390.62 259.747 387.159 252.126 384.942 249.211L383.667 247.571L384.304 243.29C385.094 238.067 385.762 232.996 386.369 227.288C387.007 221.367 387.28 207.763 386.825 203.36C385.792 192.733 382.088 188.391 375.924 190.607Z" fill="black"/>
<path d="M337.141 269.462C338.166 266.978 347.055 265.434 352.096 267.849C350.208 270.962 341.919 272.842 337.141 269.462Z" fill="#D9D9D9"/>
<path d="M297.153 268.084C298.618 265.83 307.638 265.95 312.149 269.252C309.72 271.964 301.226 272.285 297.153 268.084Z" fill="#D9D9D9"/>
</g>
<path d="M288 524.5L349 269.5L339.5 269L254 524.5H288Z" fill="#FC9851" fill-opacity="0.6"/>
<path d="M190.5 513.5L309 269.5L299.5 269L156.5 513.5H190.5Z" fill="#FC9851" fill-opacity="0.6"/>
</g>
<defs>
<clipPath id="clip0_1_6">
<rect width="512" height="512" fill="white"/>
</clipPath>
<clipPath id="clip1_1_6">
<rect width="372.877" height="388.667" fill="white" transform="translate(279 190)"/>
</clipPath>
</defs>
</svg>
